<?xml version="1.0" standalone="no"?><!-- Generator: Gravit.io --><svg xmlns="http://www.w3.org/2000/svg" xmlns:xlink="http://www.w3.org/1999/xlink" style="isolation:isolate" viewBox="798.045 2729.898 40 40" width="40" height="40"><path d=" M 809.157 2729.898 C 803.02 2729.898 798.045 2734.872 798.045 2741.009 L 798.045 2758.786 C 798.045 2764.923 803.02 2769.898 809.157 2769.898 L 826.934 2769.898 C 833.071 2769.898 838.045 2764.923 838.045 2758.786 L 838.045 2741.009 C 838.045 2734.872 833.071 2729.898 826.934 2729.898 L 809.157 2729.898 Z  M 831.379 2734.342 C 832.601 2734.342 833.601 2735.342 833.601 2736.564 C 833.601 2737.786 832.601 2738.786 831.379 2738.786 C 830.157 2738.786 829.157 2737.786 829.157 2736.564 C 829.157 2735.342 830.157 2734.342 831.379 2734.342 Z  M 818.045 2738.786 C 824.182 2738.786 829.157 2743.761 829.157 2749.898 C 829.157 2756.034 824.182 2761.009 818.045 2761.009 C 811.909 2761.009 806.934 2756.034 806.934 2749.898 C 806.934 2743.761 811.909 2738.786 818.045 2738.786 Z  M 818.045 2743.231 C 815.663 2743.232 813.462 2744.503 812.271 2746.567 C 811.081 2748.631 811.081 2751.173 812.273 2753.236 C 813.465 2755.299 815.667 2756.569 818.05 2756.569 C 821.733 2756.567 824.718 2753.581 824.717 2749.898 C 824.715 2746.214 821.729 2743.23 818.045 2743.231 L 818.045 2743.231 Z " fill="rgb(209,209,209)"/></svg>