<?xml version="1.0" standalone="no"?><!-- Generator: Gravit.io --><svg xmlns="http://www.w3.org/2000/svg" xmlns:xlink="http://www.w3.org/1999/xlink" style="isolation:isolate" viewBox="601.955 2729.898 40 40" width="40" height="40"><path d=" M 637.955 2729.898 L 605.955 2729.898 C 603.751 2729.898 601.955 2731.694 601.955 2733.898 L 601.955 2765.898 C 601.955 2768.101 603.751 2769.898 605.955 2769.898 L 637.955 2769.898 C 640.159 2769.898 641.955 2768.101 641.955 2765.898 L 641.955 2733.898 C 641.955 2731.694 640.159 2729.898 637.955 2729.898 Z  M 634.751 2740.694 L 631.955 2740.694 C 630.159 2740.694 629.955 2741.296 629.955 2742.694 L 629.955 2745.298 L 634.159 2745.298 L 633.955 2749.898 L 630.159 2749.898 L 630.159 2763.898 L 623.751 2763.898 L 623.751 2749.898 L 621.355 2749.898 L 621.355 2745.102 L 623.755 2745.102 L 623.755 2742.102 C 623.755 2738.102 625.355 2735.898 629.957 2735.898 L 634.753 2735.898 L 634.751 2740.694 Z " fill="rgb(209,209,209)"/></svg>