<?xml version="1.0" standalone="no"?><!-- Generator: Gravit.io --><svg xmlns="http://www.w3.org/2000/svg" xmlns:xlink="http://www.w3.org/1999/xlink" style="isolation:isolate" viewBox="1037.488 695.968 284.247 79.439" width="284.247" height="79.439"><g id="Group"><rect x="1039.988" y="698.468" width="279.247" height="74.439" transform="matrix(1,0,0,1,0,0)" fill="rgb(0,0,0)" vector-effect="non-scaling-stroke" stroke-width="5" stroke="rgb(200,147,49)" stroke-linejoin="round" stroke-linecap="butt" stroke-miterlimit="1.414"/><path d=" M 1206.428 736.848 L 1206.428 736.848 L 1206.428 736.848 Q 1206.428 741.713 1204.042 744.244 L 1204.042 744.244 L 1204.042 744.244 Q 1201.656 746.775 1197.055 746.775 L 1197.055 746.775 L 1197.055 746.775 Q 1192.52 746.775 1190.1 744.231 L 1190.1 744.231 L 1190.1 744.231 Q 1187.681 741.686 1187.681 736.822 L 1187.681 736.822 L 1187.681 736.822 Q 1187.681 732.01 1190.087 729.472 L 1190.087 729.472 L 1190.087 729.472 Q 1192.493 726.934 1197.081 726.934 L 1197.081 726.934 L 1197.081 726.934 Q 1201.682 726.934 1204.055 729.452 L 1204.055 729.452 L 1204.055 729.452 Q 1206.428 731.97 1206.428 736.848 Z  M 1193.166 736.848 L 1193.166 736.848 L 1193.166 736.848 Q 1193.166 742.438 1197.055 742.438 L 1197.055 742.438 L 1197.055 742.438 Q 1199.032 742.438 1199.988 741.08 L 1199.988 741.08 L 1199.988 741.08 Q 1200.944 739.722 1200.944 736.848 L 1200.944 736.848 L 1200.944 736.848 Q 1200.944 733.961 1199.975 732.583 L 1199.975 732.583 L 1199.975 732.583 Q 1199.006 731.206 1197.081 731.206 L 1197.081 731.206 L 1197.081 731.206 Q 1193.166 731.206 1193.166 736.848 Z  M 1221.088 727.237 L 1226.296 727.237 L 1226.296 738.839 L 1226.296 738.839 Q 1226.296 742.623 1224.154 744.699 L 1224.154 744.699 L 1224.154 744.699 Q 1222.011 746.775 1217.977 746.775 L 1217.977 746.775 L 1217.977 746.775 Q 1214.035 746.775 1211.919 744.758 L 1211.919 744.758 L 1211.919 744.758 Q 1209.803 742.741 1209.803 738.957 L 1209.803 738.957 L 1209.803 727.237 L 1215.037 727.237 L 1215.037 738.549 L 1215.037 738.549 Q 1215.037 740.592 1215.802 741.515 L 1215.802 741.515 L 1215.802 741.515 Q 1216.567 742.438 1218.056 742.438 L 1218.056 742.438 L 1218.056 742.438 Q 1219.651 742.438 1220.37 741.522 L 1220.37 741.522 L 1220.37 741.522 Q 1221.088 740.605 1221.088 738.522 L 1221.088 738.522 L 1221.088 727.237 L 1221.088 727.237 Z  M 1238.847 731.496 L 1238.847 746.512 L 1233.639 746.512 L 1233.639 731.496 L 1228.933 731.496 L 1228.933 727.237 L 1243.54 727.237 L 1243.54 731.496 L 1238.847 731.496 L 1238.847 731.496 Z  M 1120.221 739.274 L 1120.221 746.512 L 1115.092 746.512 L 1115.092 727.237 L 1126.483 727.237 L 1126.483 731.416 L 1120.221 731.416 L 1120.221 735.095 L 1125.995 735.095 L 1125.995 739.274 L 1120.221 739.274 L 1120.221 739.274 Z  M 1134.881 746.512 L 1129.647 746.512 L 1129.647 727.237 L 1134.881 727.237 L 1134.881 746.512 L 1134.881 746.512 Z  M 1157.399 727.237 L 1157.399 746.512 L 1150.569 746.512 L 1143.529 732.933 L 1143.411 732.933 L 1143.411 732.933 Q 1143.661 736.136 1143.661 737.824 L 1143.661 737.824 L 1143.661 746.512 L 1139.047 746.512 L 1139.047 727.237 L 1145.85 727.237 L 1152.863 740.632 L 1152.942 740.632 L 1152.942 740.632 Q 1152.758 737.718 1152.758 735.952 L 1152.758 735.952 L 1152.758 727.237 L 1157.399 727.237 L 1157.399 727.237 Z  M 1177.925 736.466 L 1177.925 736.466 L 1177.925 736.466 Q 1177.925 741.291 1175.269 743.901 L 1175.269 743.901 L 1175.269 743.901 Q 1172.612 746.512 1167.8 746.512 L 1167.8 746.512 L 1161.565 746.512 L 1161.565 727.237 L 1168.235 727.237 L 1168.235 727.237 Q 1172.876 727.237 1175.401 729.61 L 1175.401 729.61 L 1175.401 729.61 Q 1177.925 731.983 1177.925 736.466 Z  M 1172.52 736.65 L 1172.52 736.65 L 1172.52 736.65 Q 1172.52 734 1171.472 732.722 L 1171.472 732.722 L 1171.472 732.722 Q 1170.424 731.443 1168.288 731.443 L 1168.288 731.443 L 1166.772 731.443 L 1166.772 742.24 L 1167.932 742.24 L 1167.932 742.24 Q 1170.305 742.24 1171.413 740.863 L 1171.413 740.863 L 1171.413 740.863 Q 1172.52 739.485 1172.52 736.65 Z " fill-rule="evenodd" fill="rgb(200,147,49)"/></g></svg>