<?xml version="1.0" standalone="no"?><!-- Generator: Gravit.io --><svg xmlns="http://www.w3.org/2000/svg" xmlns:xlink="http://www.w3.org/1999/xlink" style="isolation:isolate" viewBox="514.018 5586.065 478.85 151.881" width="478.85" height="151.881"><g id="Group"><rect x="515.518" y="5587.565" width="475.85" height="148.881" transform="matrix(1,0,0,1,0,0)" fill="rgb(0,0,0)" vector-effect="non-scaling-stroke" stroke-width="3" stroke="rgb(200,147,49)" stroke-linejoin="round" stroke-linecap="butt" stroke-miterlimit="1.414"/><path d=" M 766.447 5654.887 L 766.447 5654.887 L 766.447 5654.887 Q 763.693 5654.887 762.15 5657.143 L 762.15 5657.143 L 762.15 5657.143 Q 760.607 5659.398 760.607 5663.363 L 760.607 5663.363 L 760.607 5663.363 Q 760.607 5671.605 766.876 5671.605 L 766.876 5671.605 L 766.876 5671.605 Q 768.771 5671.605 770.548 5671.078 L 770.548 5671.078 L 770.548 5671.078 Q 772.326 5670.551 774.123 5669.809 L 774.123 5669.809 L 774.123 5676.332 L 774.123 5676.332 Q 770.548 5677.914 766.037 5677.914 L 766.037 5677.914 L 766.037 5677.914 Q 759.572 5677.914 756.124 5674.164 L 756.124 5674.164 L 756.124 5674.164 Q 752.677 5670.414 752.677 5663.324 L 752.677 5663.324 L 752.677 5663.324 Q 752.677 5658.891 754.347 5655.531 L 754.347 5655.531 L 754.347 5655.531 Q 756.017 5652.172 759.152 5650.365 L 759.152 5650.365 L 759.152 5650.365 Q 762.287 5648.559 766.525 5648.559 L 766.525 5648.559 L 766.525 5648.559 Q 771.154 5648.559 775.373 5650.57 L 775.373 5650.57 L 773.009 5656.644 L 773.009 5656.644 Q 771.427 5655.902 769.845 5655.394 L 769.845 5655.394 L 769.845 5655.394 Q 768.263 5654.887 766.447 5654.887 Z  M 804.162 5648.969 L 804.162 5677.523 L 796.408 5677.523 L 796.408 5665.883 L 787.443 5665.883 L 787.443 5677.523 L 779.689 5677.523 L 779.689 5648.969 L 787.443 5648.969 L 787.443 5659.555 L 796.408 5659.555 L 796.408 5648.969 L 804.162 5648.969 L 804.162 5648.969 Z  M 836.29 5677.523 L 827.853 5677.523 L 826.447 5672.172 L 817.169 5672.172 L 815.724 5677.523 L 807.248 5677.523 L 816.564 5648.852 L 826.857 5648.852 L 836.29 5677.523 L 836.29 5677.523 Z  M 818.771 5665.844 L 824.845 5665.844 L 823.615 5661.156 L 823.615 5661.156 Q 823.185 5659.594 822.57 5657.113 L 822.57 5657.113 L 822.57 5657.113 Q 821.955 5654.633 821.759 5653.559 L 821.759 5653.559 L 821.759 5653.559 Q 821.583 5654.555 821.066 5656.84 L 821.066 5656.84 L 821.066 5656.84 Q 820.548 5659.125 818.771 5665.844 L 818.771 5665.844 L 818.771 5665.844 Z  M 866.564 5648.969 L 866.564 5677.523 L 856.447 5677.523 L 846.017 5657.406 L 845.841 5657.406 L 845.841 5657.406 Q 846.212 5662.152 846.212 5664.652 L 846.212 5664.652 L 846.212 5677.523 L 839.376 5677.523 L 839.376 5648.969 L 849.455 5648.969 L 859.845 5668.812 L 859.962 5668.812 L 859.962 5668.812 Q 859.689 5664.496 859.689 5661.879 L 859.689 5661.879 L 859.689 5648.969 L 866.564 5648.969 L 866.564 5648.969 Z  M 884.201 5666.762 L 884.201 5660.805 L 896.525 5660.805 L 896.525 5676.195 L 896.525 5676.195 Q 891.505 5677.914 885.49 5677.914 L 885.49 5677.914 L 885.49 5677.914 Q 878.888 5677.914 875.285 5674.086 L 875.285 5674.086 L 875.285 5674.086 Q 871.681 5670.258 871.681 5663.168 L 871.681 5663.168 L 871.681 5663.168 Q 871.681 5656.254 875.626 5652.406 L 875.626 5652.406 L 875.626 5652.406 Q 879.572 5648.559 886.681 5648.559 L 886.681 5648.559 L 886.681 5648.559 Q 889.376 5648.559 891.769 5649.066 L 891.769 5649.066 L 891.769 5649.066 Q 894.162 5649.574 895.939 5650.355 L 895.939 5650.355 L 893.498 5656.41 L 893.498 5656.41 Q 890.412 5654.887 886.72 5654.887 L 886.72 5654.887 L 886.72 5654.887 Q 883.341 5654.887 881.496 5657.084 L 881.496 5657.084 L 881.496 5657.084 Q 879.65 5659.281 879.65 5663.363 L 879.65 5663.363 L 879.65 5663.363 Q 879.65 5667.367 881.32 5669.467 L 881.32 5669.467 L 881.32 5669.467 Q 882.99 5671.566 886.134 5671.566 L 886.134 5671.566 L 886.134 5671.566 Q 887.853 5671.566 889.298 5671.234 L 889.298 5671.234 L 889.298 5666.762 L 884.201 5666.762 L 884.201 5666.762 Z  M 919.298 5671.234 L 919.298 5677.523 L 902.345 5677.523 L 902.345 5648.969 L 919.298 5648.969 L 919.298 5655.16 L 910.06 5655.16 L 910.06 5659.652 L 918.615 5659.652 L 918.615 5665.844 L 910.06 5665.844 L 910.06 5671.234 L 919.298 5671.234 L 919.298 5671.234 Z  M 740.255 5677.523 L 731.818 5677.523 L 730.412 5672.172 L 721.134 5672.172 L 719.689 5677.523 L 711.212 5677.523 L 720.529 5648.852 L 730.822 5648.852 L 740.255 5677.523 L 740.255 5677.523 Z  M 722.736 5665.844 L 728.81 5665.844 L 727.58 5661.156 L 727.58 5661.156 Q 727.15 5659.594 726.535 5657.113 L 726.535 5657.113 L 726.535 5657.113 Q 725.919 5654.633 725.724 5653.559 L 725.724 5653.559 L 725.724 5653.559 Q 725.548 5654.555 725.031 5656.84 L 725.031 5656.84 L 725.031 5656.84 Q 724.513 5659.125 722.736 5665.844 L 722.736 5665.844 L 722.736 5665.844 Z  M 606.544 5677.523 L 599.201 5677.523 L 593.361 5656.957 L 593.185 5656.957 L 593.185 5656.957 Q 593.595 5662.211 593.595 5665.121 L 593.595 5665.121 L 593.595 5677.523 L 586.759 5677.523 L 586.759 5648.969 L 597.033 5648.969 L 602.99 5669.242 L 603.146 5669.242 L 608.986 5648.969 L 619.279 5648.969 L 619.279 5677.523 L 612.189 5677.523 L 612.189 5665.004 L 612.189 5665.004 Q 612.189 5664.027 612.218 5662.836 L 612.218 5662.836 L 612.218 5662.836 Q 612.248 5661.644 612.482 5656.996 L 612.482 5656.996 L 612.306 5656.996 L 606.544 5677.523 L 606.544 5677.523 Z  M 651.388 5677.523 L 642.951 5677.523 L 641.544 5672.172 L 632.267 5672.172 L 630.822 5677.523 L 622.345 5677.523 L 631.662 5648.852 L 641.955 5648.852 L 651.388 5677.523 L 651.388 5677.523 Z  M 633.869 5665.844 L 639.943 5665.844 L 638.712 5661.156 L 638.712 5661.156 Q 638.283 5659.594 637.667 5657.113 L 637.667 5657.113 L 637.667 5657.113 Q 637.052 5654.633 636.857 5653.559 L 636.857 5653.559 L 636.857 5653.559 Q 636.681 5654.555 636.164 5656.84 L 636.164 5656.84 L 636.164 5656.84 Q 635.646 5659.125 633.869 5665.844 L 633.869 5665.844 L 633.869 5665.844 Z  M 670.021 5661.762 L 678.869 5677.523 L 670.158 5677.523 L 664.513 5666.605 L 662.228 5667.973 L 662.228 5677.523 L 654.474 5677.523 L 654.474 5648.969 L 662.228 5648.969 L 662.228 5661.371 L 662.228 5661.371 Q 662.814 5660.219 664.591 5657.719 L 664.591 5657.719 L 670.587 5648.969 L 679.025 5648.969 L 670.021 5661.762 L 670.021 5661.762 Z  M 698.908 5671.234 L 698.908 5677.523 L 681.955 5677.523 L 681.955 5648.969 L 698.908 5648.969 L 698.908 5655.16 L 689.669 5655.16 L 689.669 5659.652 L 698.224 5659.652 L 698.224 5665.844 L 689.669 5665.844 L 689.669 5671.234 L 698.908 5671.234 L 698.908 5671.234 Z " fill-rule="evenodd" fill="rgb(200,147,49)"/></g></svg>